<?xml version="1.0" encoding="utf-8"?>
<!-- Generator: Adobe Illustrator 22.1.0, SVG Export Plug-In . SVG Version: 6.00 Build 0)  -->
<svg version="1.1" id="Layer_1" xmlns="http://www.w3.org/2000/svg" xmlns:xlink="http://www.w3.org/1999/xlink" x="0px" y="0px"
	 viewBox="0 0 737 226.8" style="enable-background:new 0 0 737 226.8;" xml:space="preserve">
<style type="text/css">
	.st0{clip-path:url(#SVGID_2_);fill:#FFFFFF;}
	.st1{fill:#FFFFFF;}
	.st2{fill:#BBAC78;}
	.st3{clip-path:url(#SVGID_4_);fill:#BBAC78;}
</style>
<g>
	<defs>
		<rect id="SVGID_1_" width="737" height="226.8"/>
	</defs>
	<clipPath id="SVGID_2_">
		<use xlink:href="#SVGID_1_"  style="overflow:visible;"/>
	</clipPath>
	<path class="st0" d="M680.5,75.8h8.7v40.6H689c-1.1-2.9-2.9-5.4-5.4-7.5c-2.6-2-5.9-3.1-10.1-3.1c-3.3,0-6.3,0.7-9.2,2.1
		c-2.9,1.4-5.4,3.3-7.6,5.6c-2.2,2.3-3.9,5-5.2,8.1c-1.3,3.1-1.9,6.3-1.9,9.7c0,3.5,0.7,6.8,2,9.9c1.3,3.1,3.1,5.9,5.4,8.3
		c2.3,2.4,4.9,4.3,7.9,5.8c3,1.4,6.1,2.2,9.5,2.2c2.6,0,4.7-0.4,6.5-1.3c1.8-0.9,3.2-1.9,4.4-3.1c1.2-1.2,2.1-2.5,2.7-3.7
		c0.6-1.3,1.1-2.4,1.4-3.3h0.2v9.9h18.2v-1.6H699V74.2h-18.5V75.8z M661.5,120.6c0.4-2.8,1-5.1,2-7.1c0.9-2,2.3-3.5,4-4.5
		c1.7-1.1,3.9-1.6,6.5-1.6c2.8,0,5.1,0.5,6.9,1.5c1.8,1,3.3,2.2,4.4,3.7c0.8,1.1,1.4,2.2,1.9,3.4c0.5,1.2,0.9,2.6,1.2,4.3
		c0.3,1.7,0.5,3.6,0.6,5.7c0.1,2.2,0.2,4.7,0.2,7.7c0,2.5-0.2,5.1-0.6,7.7c-0.4,2.6-1.1,5-2.2,7.2c-1.1,2.2-2.5,3.9-4.5,5.3
		c-1.9,1.4-4.5,2-7.7,2c-3.1,0-5.6-0.6-7.4-1.8c-1.8-1.2-3.2-2.9-4.1-5.2c-0.9-2.3-1.5-5-1.7-8.2c-0.2-3.2-0.3-6.8-0.3-10.7
		C660.9,126.5,661.1,123.4,661.5,120.6 M594.9,141.7c1.5,3.1,3.5,5.9,6,8.2c2.5,2.3,5.3,4.2,8.4,5.6c3.2,1.4,6.4,2,9.7,2
		c3.3,0,6.6-0.7,9.7-2c3.2-1.4,6-3.2,8.4-5.6c2.5-2.3,4.4-5.1,6-8.2c1.5-3.1,2.3-6.5,2.3-10c0-3.7-0.8-7.1-2.4-10.3
		c-1.6-3.2-3.7-5.9-6.2-8.2c-2.5-2.3-5.4-4.1-8.5-5.4c-3.1-1.3-6.2-1.9-9.2-1.9c-3,0-6.1,0.6-9.2,1.9c-3.1,1.3-6,3.1-8.5,5.4
		c-2.5,2.3-4.6,5-6.2,8.2c-1.6,3.2-2.4,6.6-2.4,10.3C592.6,135.2,593.3,138.6,594.9,141.7 M604.8,120.3c0.6-3.1,1.5-5.6,2.8-7.5
		c1.2-1.9,2.8-3.3,4.7-4.1c1.9-0.8,4.1-1.2,6.7-1.2c2.6,0,4.8,0.4,6.7,1.2c1.9,0.8,3.5,2.2,4.7,4.1c1.2,1.9,2.2,4.4,2.8,7.5
		c0.6,3.1,0.9,6.9,0.9,11.4c0,5.4-0.4,9.6-1.2,12.8c-0.8,3.2-1.9,5.6-3.3,7.3c-1.4,1.7-2.9,2.8-4.8,3.3c-1.8,0.5-3.7,0.8-5.8,0.8
		c-2,0-4-0.3-5.8-0.8c-1.8-0.5-3.4-1.6-4.8-3.3c-1.4-1.7-2.5-4.1-3.3-7.3c-0.8-3.2-1.2-7.4-1.2-12.8
		C603.9,127.1,604.2,123.3,604.8,120.3 M537.5,141.7c1.5,3.1,3.5,5.9,6,8.2c2.5,2.3,5.3,4.2,8.4,5.6c3.2,1.4,6.4,2,9.7,2
		c3.3,0,6.6-0.7,9.7-2c3.2-1.4,6-3.2,8.4-5.6c2.5-2.3,4.4-5.1,6-8.2c1.5-3.1,2.3-6.5,2.3-10c0-3.7-0.8-7.1-2.4-10.3
		c-1.6-3.2-3.7-5.9-6.2-8.2c-2.5-2.3-5.4-4.1-8.5-5.4c-3.1-1.3-6.2-1.9-9.2-1.9c-3,0-6.1,0.6-9.2,1.9c-3.1,1.3-6,3.1-8.5,5.4
		c-2.5,2.3-4.6,5-6.2,8.2c-1.6,3.2-2.4,6.6-2.4,10.3C535.2,135.2,536,138.6,537.5,141.7 M547.5,120.3c0.6-3.1,1.5-5.6,2.8-7.5
		c1.2-1.9,2.8-3.3,4.7-4.1c1.9-0.8,4.1-1.2,6.7-1.2c2.6,0,4.8,0.4,6.7,1.2c1.9,0.8,3.5,2.2,4.7,4.1c1.2,1.9,2.2,4.4,2.8,7.5
		c0.6,3.1,0.9,6.9,0.9,11.4c0,5.4-0.4,9.6-1.2,12.8c-0.8,3.2-1.9,5.6-3.3,7.3c-1.4,1.7-2.9,2.8-4.8,3.3c-1.8,0.5-3.7,0.8-5.8,0.8
		c-2,0-4-0.3-5.8-0.8c-1.8-0.5-3.4-1.6-4.8-3.3c-1.4-1.7-2.5-4.1-3.3-7.3c-0.8-3.2-1.2-7.4-1.2-12.8
		C546.6,127.1,546.9,123.3,547.5,120.3 M458.2,108.9h7.7l18.2,50.8l17.2-41.1l15.4,41.1l20.3-50.8h6v-1.6h-18.5v1.6h10.7L521.1,144
		l-13.1-35.1h7.6v-1.6H493v1.6h4.8l2.8,7.4l-11.8,28l-12.7-35.4h9.4v-1.6h-27.3V108.9z M433.9,155.9h27.2v-1.6h-8.7V74.2h-18.5v1.6
		h8.7v78.5h-8.7V155.9z M403.8,155.9H431v-1.6h-8.7V74.2h-18.5v1.6h8.7v78.5h-8.7V155.9z M402.8,153.4c-0.8,0.6-1.7,1.1-2.6,1.4
		c-0.9,0.3-1.8,0.5-2.6,0.5c-1.3,0-2.3-0.4-2.9-1.1c-0.7-0.8-1-2.2-1-4.4v-28.2c0-2-0.3-4-0.9-5.8c-0.6-1.8-1.6-3.5-3.1-5
		c-1.4-1.5-3.3-2.6-5.7-3.5c-2.3-0.9-5.3-1.3-8.7-1.3c-2.9,0-5.4,0.3-7.7,1c-2.2,0.7-4.1,1.6-5.6,2.8c-1.5,1.2-2.6,2.5-3.3,4
		c-0.8,1.5-1.1,3.1-1.1,4.8c0,1.4,0.3,2.6,0.9,3.5c0.6,0.9,2.2,1.4,4.6,1.4c1.4,0,2.5-0.4,3.3-1.1c0.8-0.7,1.1-1.6,1.1-2.7
		c0-0.6-0.1-1.5-0.3-2.8c-0.2-1.2-0.3-2.5-0.3-3.8c0-2,0.8-3.4,2.4-4.3c1.6-0.9,3.7-1.3,6.2-1.3c1.9,0,3.4,0.3,4.5,0.8
		c1.1,0.5,2,1.3,2.6,2.3c0.6,1,1,2.2,1.2,3.7c0.2,1.4,0.3,3.1,0.3,4.9c0,2.3-0.2,4.1-0.5,5.4c-0.3,1.3-1,2.4-1.9,3.3
		c-0.9,0.9-2.2,1.6-3.8,2.2c-1.6,0.6-3.7,1.3-6.2,2.2c-2.1,0.7-4.2,1.3-6.3,1.9c-2.1,0.6-4,1.4-5.7,2.3c-1.7,0.9-3.1,2.2-4.1,3.8
		c-1.1,1.6-1.6,3.7-1.6,6.3c0,1.1,0.2,2.4,0.5,3.7c0.3,1.3,1,2.5,2.1,3.6c1.1,1.1,2.5,1.9,4.4,2.7c1.9,0.7,4.4,1.1,7.6,1.1
		c2.8,0,5.1-0.3,6.9-1c1.8-0.6,3.3-1.4,4.4-2.4c1.1-0.9,1.9-1.9,2.4-2.9c0.5-1,0.9-1.9,1.2-2.6h0.2c0.6,2.8,1.7,5,3.3,6.5
		c1.6,1.5,4.3,2.3,7.9,2.3c2,0,3.6-0.3,5-0.8c1.4-0.6,2.5-1.2,3.5-2L402.8,153.4z M383.8,139.5c0,1.5-0.1,3.2-0.4,5
		c-0.3,1.9-0.8,3.6-1.6,5.2c-0.8,1.6-2,2.9-3.5,4c-1.5,1.1-3.6,1.6-6.1,1.6c-1.7,0-3.2-0.3-4.3-0.9c-1.1-0.6-1.9-1.4-2.5-2.3
		c-0.6-0.9-1-2-1.2-3.2c-0.2-1.2-0.3-2.4-0.3-3.5c0-2.6,0.6-4.9,1.9-6.6c1.3-1.8,3.1-3.2,5.6-4.1l8.5-3.4c2.3-1,3.6-2,3.7-2.9h0.2
		V139.5z M255,76.8h10.2l28.9,80.8h3.1l19.7-54.4h0.2l19.5,54.4h2.8l29.4-80.8H379v-1.6h-24.3v1.6h12.1L343,142.6h-0.2l-23.3-65.7
		h12.4v-1.6h-34v1.6h9.5l8.6,23.9l-15.1,41.8h-0.2l-23.3-65.7h11.8v-1.6H255V76.8z"/>
</g>
<path class="st1" d="M89.2,24.9h41.9l20.4,43.7l-21,45L89.2,24.9z M171.5,201.6l-20.1-43l21-45l20.6,44.1l-20.4,43.8H171.5z"/>
<path class="st2" d="M181.5,94.1l20.7,44L255,24.9h-41.2L181.5,94.1z M171.9,24.9H149l11.4,24.4L171.9,24.9z"/>
<polygon class="st1" points="29.3,24.9 71.2,24.9 153.6,201.6 111.6,201.6 "/>
<g>
	<defs>
		<rect id="SVGID_3_" width="737" height="226.8"/>
	</defs>
	<clipPath id="SVGID_4_">
		<use xlink:href="#SVGID_3_"  style="overflow:visible;"/>
	</clipPath>
	<path class="st3" d="M704.9,183.5c-0.3-0.8-0.6-1.6-1-2.5c-0.4-0.9-0.9-1.7-1.4-2.4c-0.6-0.7-1.3-1.3-2.2-1.8
		c-0.9-0.5-2-0.7-3.3-0.7c-1.8,0-3.1,0.3-4.1,1c-1,0.6-1.8,1.5-2.3,2.7c-0.5,1.2-0.8,2.5-1,4.1c-0.1,1.6-0.2,3.3-0.2,5.2
		c0,2.5,0.1,4.6,0.4,6.2c0.3,1.6,0.7,2.9,1.4,3.9c0.6,1,1.4,1.6,2.4,2c1,0.4,2.1,0.6,3.5,0.6c1.1,0,2.1-0.2,2.9-0.6
		c0.9-0.4,1.6-1,2.3-1.7c0.7-0.7,1.2-1.5,1.7-2.4s0.8-1.9,1-2.8h0.6v7.6H705c-0.1-0.3-0.3-0.5-0.4-0.6c-0.2-0.1-0.4-0.2-0.8-0.2
		c-0.3,0-0.7,0.1-1.1,0.2c-0.5,0.1-1,0.3-1.6,0.4s-1.2,0.3-1.9,0.4c-0.7,0.1-1.4,0.2-2.2,0.2c-1.8,0-3.4-0.3-5.1-1
		c-1.6-0.7-3.1-1.6-4.3-2.8c-1.2-1.2-2.2-2.6-3-4.2c-0.7-1.6-1.1-3.3-1.1-5.2c0-2,0.4-3.9,1.2-5.5c0.8-1.7,1.9-3.1,3.2-4.2
		c1.3-1.2,2.7-2.1,4.3-2.7c1.6-0.6,3.2-1,4.7-1c0.8,0,1.5,0.1,2.1,0.2c0.7,0.1,1.3,0.3,1.8,0.4c0.6,0.2,1.1,0.3,1.5,0.4
		c0.5,0.1,0.8,0.2,1.2,0.2c0.3,0,0.6,0,0.8-0.1c0.2-0.1,0.3-0.3,0.4-0.6h0.6v7.3H704.9z M681.7,183.5c-0.3-0.8-0.6-1.6-1-2.5
		s-0.9-1.7-1.4-2.4c-0.6-0.7-1.3-1.3-2.2-1.8c-0.9-0.5-2-0.7-3.3-0.7c-1.8,0-3.1,0.3-4.1,1s-1.8,1.5-2.3,2.7c-0.5,1.2-0.8,2.5-1,4.1
		c-0.1,1.6-0.2,3.3-0.2,5.2c0,2.5,0.1,4.6,0.4,6.2c0.3,1.6,0.7,2.9,1.3,3.9c0.6,1,1.4,1.6,2.4,2c1,0.4,2.1,0.6,3.5,0.6
		c1.1,0,2.1-0.2,2.9-0.6c0.9-0.4,1.7-1,2.3-1.7c0.7-0.7,1.2-1.5,1.7-2.4c0.5-0.9,0.8-1.9,1-2.8h0.6v7.6h-0.6
		c-0.1-0.3-0.3-0.5-0.4-0.6c-0.2-0.1-0.4-0.2-0.8-0.2c-0.3,0-0.7,0.1-1.1,0.2c-0.5,0.1-1,0.3-1.6,0.4c-0.6,0.2-1.2,0.3-1.9,0.4
		c-0.7,0.1-1.4,0.2-2.2,0.2c-1.8,0-3.4-0.3-5.1-1c-1.6-0.7-3.1-1.6-4.3-2.8c-1.2-1.2-2.2-2.6-3-4.2c-0.7-1.6-1.1-3.3-1.1-5.2
		c0-2,0.4-3.9,1.2-5.5c0.8-1.7,1.9-3.1,3.2-4.2c1.3-1.2,2.7-2.1,4.3-2.7c1.6-0.6,3.2-1,4.7-1c0.8,0,1.5,0.1,2.1,0.2
		c0.7,0.1,1.3,0.3,1.8,0.4c0.6,0.2,1.1,0.3,1.5,0.4s0.8,0.2,1.2,0.2c0.3,0,0.6,0,0.8-0.1c0.2-0.1,0.3-0.3,0.4-0.6h0.6v7.3H681.7z
		 M638.3,176.2l6.2,17.9h0.1l6.3-17.9h9v0.5h-3.3v24.6h3.3v0.5h-11.8v-0.5h3.3v-24.6h-0.1l-8.9,25.1h-0.6l-8.9-25.1h-0.1v24.6h3.3
		v0.5h-7.2v-0.5h3.3v-24.6h-3.3v-0.5H638.3z M602.3,176.7v-0.5h3.3c1.2,0,2.4,0,3.7-0.1c1.2,0,2.4-0.1,3.7-0.1
		c1.1,0,2.2,0.1,3.4,0.2c1.2,0.1,2.4,0.4,3.6,0.8c1.2,0.4,2.3,0.9,3.3,1.5c1.1,0.6,2,1.4,2.8,2.4c0.8,1,1.5,2.1,1.9,3.4
		c0.5,1.3,0.7,2.9,0.7,4.6c0,1.8-0.2,3.3-0.7,4.6c-0.5,1.3-1.1,2.5-1.9,3.4c-0.8,1-1.7,1.8-2.8,2.4c-1,0.6-2.1,1.1-3.2,1.5
		c-1.1,0.4-2.2,0.6-3.3,0.8c-1.1,0.1-2.1,0.2-3,0.2c-1.4,0-2.7,0-4.1,0c-1.4,0-2.7,0-4.1,0h-3.3v-0.5h3.3v-24.6H602.3z M612.8,201.4
		c1.6,0,2.9-0.2,4-0.6c1.1-0.4,2-0.9,2.8-1.5c0.8-0.6,1.4-1.4,1.8-2.2c0.4-0.8,0.8-1.7,1-2.6c0.2-0.9,0.4-1.8,0.5-2.7
		c0.1-0.9,0.1-1.7,0.1-2.5c0-1.9-0.1-3.7-0.4-5.3c-0.2-1.6-0.7-2.9-1.4-4c-0.7-1.1-1.7-2-3-2.6c-1.3-0.6-3-0.9-5.1-0.9
		c-0.5,0-0.9,0-1.3,0c-0.4,0-0.7,0-0.9,0.1v24.6C611.6,201.4,612.2,201.4,612.8,201.4 M588,182.1c0.4,0.1,0.7,0.1,1.1,0.1
		s0.7,0,1.1-0.1c0.4-0.1,0.7-0.2,1.1-0.4v4.6h4.2v0.5h-4.2v12.1c0,0.4,0,0.7,0.1,1c0,0.3,0.1,0.6,0.3,0.8c0.1,0.3,0.3,0.5,0.6,0.6
		s0.6,0.2,1,0.2c0.5,0,0.8-0.1,1.2-0.3c0.3-0.2,0.6-0.4,0.8-0.7c0.2-0.3,0.4-0.6,0.6-1c0.2-0.4,0.3-0.8,0.4-1.1l0.5,0.1
		c-0.1,0.8-0.4,1.5-0.7,2c-0.3,0.5-0.7,0.9-1.2,1.1c-0.4,0.3-0.9,0.4-1.4,0.5c-0.5,0.1-1,0.1-1.4,0.1c-1.2,0-2.2-0.1-2.9-0.4
		c-0.7-0.3-1.2-0.6-1.5-1.1c-0.3-0.4-0.5-0.9-0.6-1.4c0-0.5-0.1-1-0.1-1.4v-11.1h-2.4v-0.5h2.4v-4.6
		C587.3,181.9,587.6,182,588,182.1 M567.2,201.3v-14.4h-2.4v-0.5h6.7v3.6h0.1c0.1-0.2,0.3-0.5,0.5-1s0.6-0.9,1-1.3s1-0.8,1.8-1.1
		c0.7-0.3,1.6-0.5,2.7-0.5c1.6,0,2.8,0.5,3.7,1.4c0.9,0.9,1.3,2.2,1.3,3.7v10.2h2.4v0.5h-9v-0.5h2.2v-11.4c0-1-0.2-1.7-0.6-2.2
		c-0.4-0.5-1-0.7-1.7-0.7c-0.6,0-1.1,0.1-1.7,0.4c-0.5,0.3-1,0.7-1.4,1.2s-0.7,1.2-1,2.1c-0.2,0.8-0.4,1.8-0.4,2.9v7.7h2.3v0.5h-9
		v-0.5H567.2z M554.1,194.4c0,0.9,0,1.7,0.1,2.6c0.1,0.9,0.3,1.7,0.6,2.4c0.3,0.7,0.8,1.3,1.4,1.7c0.6,0.5,1.4,0.7,2.5,0.7
		c1,0,1.8-0.2,2.4-0.5c0.7-0.4,1.2-0.8,1.6-1.2s0.7-0.9,0.9-1.4c0.2-0.5,0.3-0.8,0.3-1l0.5,0.2c-0.1,0.5-0.3,0.9-0.6,1.5
		s-0.7,1-1.2,1.4c-0.5,0.4-1.1,0.8-1.9,1.1s-1.6,0.4-2.7,0.4c-1.2,0-2.4-0.2-3.5-0.6c-1.1-0.4-2-0.9-2.8-1.6
		c-0.8-0.7-1.4-1.6-1.9-2.6c-0.5-1-0.7-2.2-0.7-3.5c0-1,0.2-2,0.6-3c0.4-1,1-1.9,1.8-2.6c0.8-0.8,1.6-1.4,2.7-1.8
		c1-0.5,2.1-0.7,3.3-0.7c0.8,0,1.7,0.1,2.5,0.4c0.8,0.3,1.6,0.7,2.3,1.2s1.2,1.3,1.7,2.1c0.4,0.9,0.6,1.9,0.6,3.1h-10.6V194.4z
		 M559.9,189.9c0-0.3,0-0.6,0-1s-0.1-0.8-0.3-1.2c-0.1-0.4-0.4-0.7-0.7-1c-0.3-0.3-0.8-0.4-1.4-0.4c-0.8,0-1.4,0.2-1.9,0.6
		c-0.4,0.4-0.8,0.9-1,1.5c-0.2,0.6-0.4,1.2-0.4,1.9c-0.1,0.7-0.1,1.3-0.1,2h5.8V189.9z M526.9,186.4v2.6h0.1
		c0.1-0.2,0.3-0.5,0.6-0.8s0.6-0.6,1-0.9c0.4-0.3,0.9-0.6,1.4-0.8c0.6-0.2,1.2-0.3,2-0.3c0.8,0,1.5,0.1,2.1,0.3
		c0.6,0.2,1,0.4,1.4,0.7s0.7,0.6,0.9,0.9c0.2,0.3,0.4,0.7,0.6,1c0.4-0.6,0.8-1.2,1.2-1.5c0.4-0.4,0.9-0.7,1.3-0.9
		c0.5-0.2,0.9-0.3,1.3-0.4c0.4-0.1,0.7-0.1,1-0.1c1.4,0,2.4,0.2,3.2,0.6c0.7,0.4,1.3,0.9,1.6,1.5c0.3,0.6,0.5,1.2,0.6,1.8
		c0.1,0.6,0.1,1.2,0.1,1.6v9.8h2.4v0.5h-8.9v-0.5h2.1v-11.2c0-1-0.2-1.8-0.6-2.3s-1-0.8-1.9-0.8c-0.3,0-0.6,0.1-1,0.2
		c-0.4,0.1-0.8,0.4-1.1,0.6c-0.4,0.3-0.7,0.7-0.9,1.1c-0.3,0.5-0.4,1-0.4,1.7v10.6h2.1v0.5h-8.7v-0.5h2.2v-11.4
		c0-1.1-0.2-1.8-0.7-2.2c-0.5-0.4-1-0.6-1.5-0.6c-1,0-1.8,0.4-2.5,1.3c-0.2,0.2-0.4,0.5-0.5,0.7s-0.3,0.5-0.3,0.9
		c-0.1,0.3-0.1,0.7-0.2,1.1c0,0.4-0.1,0.9-0.1,1.5v8.8h2.1v0.5h-8.9v-0.5h2.4v-14.4h-2.4v-0.5H526.9z M509.5,194.4
		c0,0.9,0,1.7,0.1,2.6c0.1,0.9,0.3,1.7,0.6,2.4c0.3,0.7,0.8,1.3,1.4,1.7c0.6,0.5,1.4,0.7,2.5,0.7c1,0,1.8-0.2,2.4-0.5
		c0.7-0.4,1.2-0.8,1.6-1.2c0.4-0.5,0.7-0.9,0.9-1.4c0.2-0.5,0.3-0.8,0.3-1l0.5,0.2c-0.1,0.5-0.3,0.9-0.6,1.5c-0.3,0.5-0.7,1-1.2,1.4
		c-0.5,0.4-1.1,0.8-1.9,1.1s-1.6,0.4-2.7,0.4c-1.2,0-2.4-0.2-3.5-0.6c-1.1-0.4-2-0.9-2.8-1.6c-0.8-0.7-1.4-1.6-1.9-2.6
		c-0.5-1-0.7-2.2-0.7-3.5c0-1,0.2-2,0.6-3c0.4-1,1-1.9,1.8-2.6c0.8-0.8,1.6-1.4,2.7-1.8c1-0.5,2.1-0.7,3.3-0.7
		c0.8,0,1.7,0.1,2.5,0.4c0.8,0.3,1.6,0.7,2.3,1.2s1.2,1.3,1.7,2.1c0.4,0.9,0.6,1.9,0.6,3.1h-10.6V194.4z M515.3,189.9
		c0-0.3,0-0.6,0-1s-0.1-0.8-0.3-1.2c-0.1-0.4-0.4-0.7-0.7-1c-0.3-0.3-0.8-0.4-1.4-0.4c-0.8,0-1.4,0.2-1.9,0.6s-0.8,0.9-1,1.5
		c-0.2,0.6-0.4,1.2-0.4,1.9c-0.1,0.7-0.1,1.3-0.1,2h5.8V189.9z M499.7,199.5c0.8,0.2,1.6,0.5,2.2,0.9c0.6,0.4,1.1,1,1.5,1.7
		c0.4,0.7,0.6,1.6,0.6,2.8c0,0.9-0.2,1.8-0.6,2.7c-0.4,0.9-0.9,1.7-1.7,2.4s-1.6,1.3-2.7,1.7c-1,0.4-2.2,0.6-3.6,0.6
		c-1.5,0-2.7-0.2-3.6-0.5c-0.9-0.3-1.6-0.7-2.1-1.2s-0.8-0.9-0.9-1.4s-0.2-0.9-0.2-1.2c0-0.6,0.1-1.2,0.4-1.7s0.7-0.9,1.1-1.3
		c0.5-0.4,1-0.7,1.5-1c0.6-0.3,1.1-0.5,1.7-0.6v-0.1c-0.5,0-1-0.1-1.6-0.2c-0.6-0.1-1.2-0.3-1.7-0.6c-0.5-0.3-1-0.7-1.3-1.2
		c-0.4-0.5-0.5-1.1-0.5-1.9c0-0.1,0-0.3,0.1-0.6c0.1-0.3,0.2-0.7,0.4-1.1c0.2-0.4,0.5-0.9,1-1.3s1-0.9,1.8-1.3
		c-0.2-0.2-0.5-0.4-0.7-0.6c-0.3-0.2-0.5-0.5-0.7-0.8c-0.2-0.3-0.4-0.6-0.6-1s-0.2-0.9-0.2-1.4c0-0.7,0.2-1.4,0.5-2.1
		s0.8-1.2,1.4-1.7s1.3-0.9,2.2-1.2c0.9-0.3,1.9-0.4,2.9-0.4c1.1,0,2,0.2,2.8,0.5s1.4,0.7,2,1.2c0.6-0.6,1.1-1,1.6-1.2
		c0.5-0.3,1.1-0.4,1.9-0.4c0.7,0,1.2,0.2,1.6,0.5c0.3,0.3,0.5,0.8,0.5,1.4c0,0.5-0.1,0.9-0.4,1.1c-0.3,0.3-0.7,0.4-1.2,0.4
		c-0.3,0-0.6,0-0.8-0.1c-0.2-0.1-0.4-0.2-0.5-0.3s-0.2-0.3-0.2-0.4c0-0.2-0.1-0.3-0.1-0.4c0-0.3-0.1-0.6-0.1-0.8
		c0-0.2-0.2-0.3-0.5-0.3c-0.1,0-0.3,0.1-0.5,0.2s-0.5,0.3-1,0.7c0.3,0.3,0.6,0.7,0.9,1.2s0.5,1.3,0.5,2.3c0,0.6-0.1,1.2-0.3,1.8
		s-0.6,1.1-1.1,1.6s-1.2,0.9-2,1.2c-0.8,0.3-1.8,0.4-3,0.4c-1,0-1.8-0.1-2.6-0.3c-0.7-0.2-1.4-0.4-1.8-0.6c-0.7,0.5-1.1,0.8-1.2,1.2
		c-0.1,0.3-0.2,0.6-0.2,0.9c0,0.6,0.2,1,0.7,1.3c0.5,0.3,1.1,0.4,1.9,0.4h4C498,199.3,498.8,199.4,499.7,199.5 M497.1,195.6
		c0.3-0.1,0.6-0.3,0.9-0.6c0.2-0.3,0.4-0.8,0.6-1.4c0.1-0.6,0.2-1.4,0.2-2.4c0-0.7,0-1.3-0.1-1.9s-0.2-1.1-0.4-1.5
		c-0.2-0.4-0.5-0.8-0.8-1c-0.4-0.2-0.9-0.4-1.5-0.4c-0.6,0-1.1,0.1-1.5,0.4s-0.7,0.6-0.9,1c-0.2,0.4-0.3,0.9-0.4,1.4
		c-0.1,0.5-0.1,1.1-0.1,1.6c0,1.1,0.1,2,0.2,2.7c0.1,0.7,0.3,1.2,0.6,1.5c0.3,0.3,0.6,0.6,0.9,0.7c0.4,0.1,0.7,0.1,1.2,0.1
		C496.4,195.8,496.8,195.8,497.1,195.6 M492,208.8c0.1,0.5,0.3,1,0.7,1.4s0.8,0.8,1.4,1.1c0.6,0.3,1.3,0.4,2.2,0.4
		c0.7,0,1.4-0.1,2-0.4c0.6-0.2,1.2-0.6,1.6-1c0.5-0.4,0.8-0.9,1.1-1.5c0.3-0.6,0.4-1.3,0.4-2s-0.1-1.3-0.4-1.7
		c-0.2-0.4-0.5-0.8-0.9-1.1c-0.4-0.3-0.8-0.4-1.2-0.5c-0.4-0.1-0.8-0.1-1.2-0.1h-3.7c-0.7,0.6-1.3,1.2-1.7,1.7
		c-0.4,0.6-0.6,1.3-0.6,2.3C491.8,207.9,491.8,208.3,492,208.8 M487.6,202.1c-0.6,0.1-1.2,0.1-1.8,0.1c-1.2,0-2.1-0.2-2.7-0.6
		c-0.6-0.4-1-1-1.1-1.8h-0.1c-0.4,1-0.9,1.6-1.6,1.9s-1.6,0.5-2.9,0.5c-0.6,0-1.2-0.1-1.8-0.2c-0.6-0.1-1.2-0.3-1.7-0.6
		s-0.9-0.6-1.2-1.1c-0.3-0.5-0.5-1-0.5-1.7c0-0.7,0.1-1.3,0.4-1.7s0.6-0.9,1.1-1.2c0.4-0.3,0.9-0.6,1.5-0.8s1.1-0.4,1.7-0.6
		c1-0.3,1.8-0.5,2.4-0.7s1.1-0.4,1.4-0.6c0.3-0.2,0.6-0.5,0.7-0.8c0.1-0.3,0.2-0.7,0.2-1.1v-2.2c0-0.6-0.2-1.2-0.5-1.8
		c-0.3-0.5-0.9-0.8-1.8-0.8c-0.6,0-1,0.1-1.4,0.4c-0.4,0.3-0.6,0.7-0.6,1.4c0,0.1,0,0.2,0,0.4c0,0.2,0,0.4,0.1,0.6
		c0,0.2,0,0.4,0.1,0.6c0,0.2,0,0.3,0,0.4c0,0.4-0.1,0.6-0.3,0.8c-0.2,0.2-0.4,0.4-0.6,0.4s-0.5,0.1-0.7,0.2c-0.3,0-0.5,0-0.6,0
		c-0.2,0-0.5,0-0.7-0.1c-0.3,0-0.5-0.1-0.7-0.3c-0.2-0.1-0.4-0.3-0.5-0.6c-0.1-0.2-0.2-0.6-0.2-1c0-0.6,0.2-1.2,0.5-1.7
		s0.8-0.9,1.4-1.2c0.6-0.3,1.2-0.6,2-0.7c0.7-0.2,1.5-0.3,2.3-0.3c0.9,0,1.8,0.1,2.6,0.2c0.8,0.1,1.5,0.4,2.1,0.8
		c0.6,0.4,1.1,0.9,1.4,1.6s0.5,1.5,0.5,2.5v8.9c0,0.5,0.1,0.9,0.2,1.2c0.1,0.3,0.5,0.5,1,0.5c0.3,0,0.6-0.1,0.8-0.2
		c0.2-0.1,0.4-0.3,0.6-0.5l0.3,0.3C488.7,201.8,488.2,202.1,487.6,202.1 M481.7,192.9c0,0.1-0.1,0.3-0.3,0.4s-0.4,0.3-0.7,0.4
		c-0.5,0.2-0.9,0.4-1.4,0.6s-0.9,0.5-1.2,0.8c-0.4,0.3-0.7,0.7-0.9,1.2c-0.2,0.5-0.3,1-0.3,1.8c0,0.3,0,0.6,0.1,1
		c0,0.4,0.1,0.8,0.3,1.1s0.4,0.7,0.7,0.9s0.7,0.4,1.3,0.4c0.3,0,0.6-0.1,0.9-0.2c0.3-0.1,0.6-0.4,0.8-0.7c0.2-0.3,0.4-0.7,0.6-1.2
		c0.1-0.5,0.2-1.1,0.2-1.8L481.7,192.9L481.7,192.9z M454.7,201.3v-14.4h-2.4v-0.5h6.7v3.6h0.1c0.1-0.2,0.3-0.5,0.5-1
		c0.2-0.4,0.6-0.9,1-1.3s1-0.8,1.8-1.1c0.7-0.3,1.6-0.5,2.7-0.5c1.6,0,2.8,0.5,3.7,1.4c0.9,0.9,1.3,2.2,1.3,3.7v10.2h2.4v0.5h-9
		v-0.5h2.2v-11.4c0-1-0.2-1.7-0.6-2.2c-0.4-0.5-1-0.7-1.7-0.7c-0.6,0-1.1,0.1-1.7,0.4c-0.5,0.3-1,0.7-1.4,1.2
		c-0.4,0.6-0.7,1.2-1,2.1c-0.2,0.8-0.4,1.8-0.4,2.9v7.7h2.3v0.5h-9v-0.5H454.7z M451.6,202.1c-0.6,0.1-1.2,0.1-1.8,0.1
		c-1.2,0-2.1-0.2-2.7-0.6c-0.6-0.4-1-1-1.1-1.8h-0.1c-0.4,1-0.9,1.6-1.6,1.9s-1.6,0.5-2.9,0.5c-0.6,0-1.2-0.1-1.8-0.2
		c-0.6-0.1-1.2-0.3-1.7-0.6c-0.5-0.3-0.9-0.6-1.2-1.1c-0.3-0.5-0.5-1-0.5-1.7c0-0.7,0.1-1.3,0.4-1.7s0.6-0.9,1.1-1.2
		c0.4-0.3,0.9-0.6,1.5-0.8c0.6-0.2,1.1-0.4,1.7-0.6c1-0.3,1.8-0.5,2.4-0.7s1.1-0.4,1.4-0.6c0.3-0.2,0.6-0.5,0.7-0.8
		c0.1-0.3,0.2-0.7,0.2-1.1v-2.2c0-0.6-0.2-1.2-0.5-1.8c-0.3-0.5-0.9-0.8-1.8-0.8c-0.6,0-1,0.1-1.4,0.4c-0.4,0.3-0.6,0.7-0.6,1.4
		c0,0.1,0,0.2,0,0.4c0,0.2,0,0.4,0.1,0.6c0,0.2,0,0.4,0.1,0.6c0,0.2,0,0.3,0,0.4c0,0.4-0.1,0.6-0.3,0.8c-0.2,0.2-0.4,0.4-0.6,0.4
		c-0.2,0.1-0.5,0.1-0.7,0.2c-0.3,0-0.5,0-0.6,0c-0.2,0-0.5,0-0.7-0.1c-0.3,0-0.5-0.1-0.7-0.3c-0.2-0.1-0.4-0.3-0.5-0.6
		c-0.1-0.2-0.2-0.6-0.2-1c0-0.6,0.2-1.2,0.5-1.7c0.3-0.5,0.8-0.9,1.4-1.2s1.2-0.6,2-0.7c0.7-0.2,1.5-0.3,2.3-0.3
		c0.9,0,1.8,0.1,2.6,0.2c0.8,0.1,1.5,0.4,2.1,0.8c0.6,0.4,1.1,0.9,1.4,1.6c0.3,0.7,0.5,1.5,0.5,2.5v8.9c0,0.5,0.1,0.9,0.2,1.2
		c0.1,0.3,0.5,0.5,1,0.5c0.3,0,0.6-0.1,0.8-0.2c0.2-0.1,0.4-0.3,0.6-0.5l0.3,0.3C452.7,201.8,452.2,202.1,451.6,202.1 M445.7,192.9
		c0,0.1-0.1,0.3-0.3,0.4c-0.1,0.1-0.4,0.3-0.7,0.4c-0.5,0.2-0.9,0.4-1.4,0.6c-0.5,0.2-0.9,0.5-1.2,0.8c-0.4,0.3-0.7,0.7-0.9,1.2
		c-0.2,0.5-0.3,1-0.3,1.8c0,0.3,0,0.6,0.1,1s0.1,0.8,0.3,1.1c0.2,0.4,0.4,0.7,0.7,0.9c0.3,0.3,0.7,0.4,1.3,0.4
		c0.3,0,0.6-0.1,0.9-0.2c0.3-0.1,0.6-0.4,0.8-0.7c0.2-0.3,0.4-0.7,0.6-1.2c0.1-0.5,0.2-1.1,0.2-1.8L445.7,192.9L445.7,192.9z
		 M414.6,176.2l6.2,17.9h0.1l6.3-17.9h9v0.5H433v24.6h3.3v0.5h-11.8v-0.5h3.3v-24.6h-0.1l-8.9,25.1h-0.6l-8.9-25.1h-0.1v24.6h3.3
		v0.5h-7.2v-0.5h3.3v-24.6h-3.3v-0.5H414.6z M396.3,175.9v25.5h2.4v0.5h-9.2v-0.5h2.4v-24.9h-2.4v-0.5H396.3z M389,202.1
		c-0.6,0.1-1.2,0.1-1.8,0.1c-1.2,0-2.1-0.2-2.7-0.6c-0.6-0.4-1-1-1.1-1.8h-0.1c-0.4,1-0.9,1.6-1.6,1.9s-1.6,0.5-2.9,0.5
		c-0.6,0-1.2-0.1-1.8-0.2c-0.6-0.1-1.2-0.3-1.7-0.6s-0.9-0.6-1.2-1.1c-0.3-0.5-0.5-1-0.5-1.7c0-0.7,0.1-1.3,0.4-1.7s0.6-0.9,1.1-1.2
		c0.4-0.3,0.9-0.6,1.5-0.8s1.1-0.4,1.7-0.6c1-0.3,1.8-0.5,2.4-0.7s1.1-0.4,1.4-0.6c0.3-0.2,0.6-0.5,0.7-0.8c0.1-0.3,0.2-0.7,0.2-1.1
		v-2.2c0-0.6-0.2-1.2-0.5-1.8c-0.3-0.5-0.9-0.8-1.8-0.8c-0.6,0-1,0.1-1.4,0.4c-0.4,0.3-0.6,0.7-0.6,1.4c0,0.1,0,0.2,0,0.4
		c0,0.2,0,0.4,0.1,0.6c0,0.2,0,0.4,0.1,0.6c0,0.2,0,0.3,0,0.4c0,0.4-0.1,0.6-0.3,0.8c-0.2,0.2-0.4,0.4-0.6,0.4s-0.5,0.1-0.7,0.2
		c-0.3,0-0.5,0-0.6,0c-0.2,0-0.5,0-0.7-0.1c-0.3,0-0.5-0.1-0.7-0.3c-0.2-0.1-0.4-0.3-0.5-0.6c-0.1-0.2-0.2-0.6-0.2-1
		c0-0.6,0.2-1.2,0.5-1.7s0.8-0.9,1.4-1.2c0.6-0.3,1.2-0.6,2-0.7c0.7-0.2,1.5-0.3,2.3-0.3c0.9,0,1.8,0.1,2.6,0.2
		c0.8,0.1,1.5,0.4,2.1,0.8c0.6,0.4,1.1,0.9,1.4,1.6s0.5,1.5,0.5,2.5v8.9c0,0.5,0.1,0.9,0.2,1.2c0.1,0.3,0.5,0.5,1,0.5
		c0.3,0,0.6-0.1,0.8-0.2c0.2-0.1,0.4-0.3,0.6-0.5l0.3,0.3C390.1,201.8,389.7,202.1,389,202.1 M383.1,192.9c0,0.1-0.1,0.3-0.3,0.4
		s-0.4,0.3-0.7,0.4c-0.5,0.2-0.9,0.4-1.4,0.6s-0.9,0.5-1.2,0.8c-0.4,0.3-0.7,0.7-0.9,1.2c-0.2,0.5-0.3,1-0.3,1.8c0,0.3,0,0.6,0.1,1
		c0,0.4,0.1,0.8,0.3,1.1s0.4,0.7,0.7,0.9s0.7,0.4,1.3,0.4c0.3,0,0.6-0.1,0.9-0.2c0.3-0.1,0.6-0.4,0.8-0.7c0.2-0.3,0.4-0.7,0.6-1.2
		c0.1-0.5,0.2-1.1,0.2-1.8L383.1,192.9L383.1,192.9z M366.3,182.1c0.4,0.1,0.7,0.1,1.1,0.1c0.4,0,0.7,0,1.1-0.1
		c0.4-0.1,0.7-0.2,1.1-0.4v4.6h4.2v0.5h-4.2v12.1c0,0.4,0,0.7,0.1,1s0.1,0.6,0.3,0.8s0.3,0.5,0.6,0.6c0.3,0.1,0.6,0.2,1,0.2
		c0.5,0,0.8-0.1,1.2-0.3s0.6-0.4,0.8-0.7c0.2-0.3,0.4-0.6,0.6-1s0.3-0.8,0.4-1.1l0.5,0.1c-0.1,0.8-0.4,1.5-0.7,2
		c-0.3,0.5-0.7,0.9-1.2,1.1c-0.4,0.3-0.9,0.4-1.4,0.5s-1,0.1-1.4,0.1c-1.2,0-2.2-0.1-2.9-0.4c-0.7-0.3-1.2-0.6-1.5-1.1
		c-0.3-0.4-0.5-0.9-0.6-1.4c0-0.5-0.1-1-0.1-1.4v-11.1h-2.4v-0.5h2.4v-4.6C365.6,181.9,366,182,366.3,182.1 M361.1,186.4v14.9h2.4
		v0.5h-9.2v-0.5h2.4v-14.4h-2.4v-0.5H361.1z M357.1,176.8c0.5-0.5,1.1-0.8,1.8-0.8c0.7,0,1.3,0.3,1.8,0.8s0.8,1.1,0.8,1.8
		s-0.3,1.3-0.8,1.8s-1.1,0.8-1.8,0.8c-0.7,0-1.3-0.3-1.8-0.8s-0.8-1.1-0.8-1.8S356.6,177.3,357.1,176.8 M335.4,186.9v-0.5h6.7v2.7
		h0.1c0.7-2.1,2.2-3.2,4.2-3.2c1.4,0,2.6,0.3,3.6,0.8c1,0.5,1.8,1.2,2.4,2c0.6,0.8,1.1,1.7,1.4,2.7c0.3,1,0.5,1.9,0.5,2.7
		c0,1.1-0.2,2.1-0.6,3.1c-0.4,1-0.9,1.9-1.6,2.6c-0.7,0.8-1.5,1.4-2.5,1.8c-1,0.5-2,0.7-3.2,0.7c-1.1,0-2-0.3-2.7-0.9
		c-0.7-0.6-1.2-1.3-1.5-2.2h-0.1v12.1h2.4v0.5h-9.2v-0.5h2.4v-24.5H335.4z M342.3,196.6c0.1,0.9,0.2,1.7,0.5,2.5
		c0.3,0.8,0.7,1.4,1.3,1.9c0.6,0.5,1.4,0.8,2.4,0.8c0.7,0,1.2-0.2,1.6-0.5s0.7-0.9,0.9-1.5c0.2-0.7,0.3-1.5,0.4-2.4
		c0.1-0.9,0.1-2,0.1-3.2c0-1.4-0.1-2.7-0.2-3.7s-0.3-1.8-0.6-2.4c-0.3-0.6-0.6-1-1-1.3c-0.4-0.3-0.9-0.4-1.5-0.4
		c-0.9,0-1.6,0.3-2.1,0.8c-0.5,0.5-0.9,1.1-1.2,1.9c-0.3,0.8-0.4,1.6-0.5,2.5c-0.1,0.9-0.1,1.8-0.1,2.6
		C342.2,194.9,342.2,195.7,342.3,196.6 M335.1,202.1c-0.6,0.1-1.2,0.1-1.8,0.1c-1.2,0-2.1-0.2-2.7-0.6c-0.6-0.4-1-1-1.1-1.8h-0.1
		c-0.4,1-0.9,1.6-1.6,1.9c-0.7,0.3-1.6,0.5-2.9,0.5c-0.6,0-1.2-0.1-1.8-0.2c-0.6-0.1-1.2-0.3-1.7-0.6s-0.9-0.6-1.2-1.1
		c-0.3-0.5-0.5-1-0.5-1.7c0-0.7,0.1-1.3,0.4-1.7s0.6-0.9,1.1-1.2c0.4-0.3,0.9-0.6,1.5-0.8c0.6-0.2,1.1-0.4,1.7-0.6
		c1-0.3,1.8-0.5,2.4-0.7s1.1-0.4,1.4-0.6s0.6-0.5,0.7-0.8c0.1-0.3,0.2-0.7,0.2-1.1v-2.2c0-0.6-0.2-1.2-0.5-1.8s-0.9-0.8-1.8-0.8
		c-0.6,0-1,0.1-1.4,0.4c-0.4,0.3-0.6,0.7-0.6,1.4c0,0.1,0,0.2,0,0.4c0,0.2,0,0.4,0.1,0.6c0,0.2,0,0.4,0.1,0.6c0,0.2,0,0.3,0,0.4
		c0,0.4-0.1,0.6-0.3,0.8c-0.2,0.2-0.4,0.4-0.6,0.4s-0.5,0.1-0.7,0.2c-0.3,0-0.5,0-0.6,0c-0.2,0-0.5,0-0.7-0.1
		c-0.3,0-0.5-0.1-0.7-0.3c-0.2-0.1-0.4-0.3-0.5-0.6c-0.1-0.2-0.2-0.6-0.2-1c0-0.6,0.2-1.2,0.5-1.7s0.8-0.9,1.4-1.2
		c0.6-0.3,1.2-0.6,2-0.7s1.5-0.3,2.3-0.3c0.9,0,1.8,0.1,2.6,0.2c0.8,0.1,1.5,0.4,2.1,0.8c0.6,0.4,1.1,0.9,1.4,1.6
		c0.3,0.7,0.5,1.5,0.5,2.5v8.9c0,0.5,0.1,0.9,0.2,1.2c0.1,0.3,0.5,0.5,1,0.5c0.3,0,0.6-0.1,0.8-0.2c0.2-0.1,0.4-0.3,0.6-0.5l0.3,0.3
		C336.3,201.8,335.8,202.1,335.1,202.1 M329.3,192.9c0,0.1-0.1,0.3-0.3,0.4c-0.1,0.1-0.4,0.3-0.7,0.4c-0.5,0.2-0.9,0.4-1.4,0.6
		s-0.9,0.5-1.2,0.8c-0.4,0.3-0.7,0.7-0.9,1.2c-0.2,0.5-0.3,1-0.3,1.8c0,0.3,0,0.6,0.1,1c0,0.4,0.1,0.8,0.3,1.1
		c0.2,0.4,0.4,0.7,0.7,0.9c0.3,0.3,0.7,0.4,1.3,0.4c0.3,0,0.6-0.1,0.9-0.2s0.6-0.4,0.8-0.7s0.4-0.7,0.6-1.2c0.1-0.5,0.2-1.1,0.2-1.8
		L329.3,192.9L329.3,192.9z M318.2,183.5c-0.3-0.8-0.6-1.6-1-2.5s-0.9-1.7-1.4-2.4c-0.6-0.7-1.3-1.3-2.2-1.8c-0.9-0.5-2-0.7-3.3-0.7
		c-1.8,0-3.1,0.3-4.1,1s-1.8,1.5-2.3,2.7c-0.5,1.2-0.8,2.5-1,4.1c-0.1,1.6-0.2,3.3-0.2,5.2c0,2.5,0.1,4.6,0.4,6.2
		c0.3,1.6,0.7,2.9,1.3,3.9c0.6,1,1.4,1.6,2.4,2c1,0.4,2.1,0.6,3.5,0.6c1.1,0,2.1-0.2,2.9-0.6c0.9-0.4,1.6-1,2.3-1.7
		c0.7-0.7,1.2-1.5,1.7-2.4c0.5-0.9,0.8-1.9,1-2.8h0.6v7.6h-0.6c-0.1-0.3-0.3-0.5-0.4-0.6s-0.4-0.2-0.8-0.2c-0.3,0-0.7,0.1-1.1,0.2
		c-0.5,0.1-1,0.3-1.6,0.4c-0.6,0.2-1.2,0.3-1.9,0.4c-0.7,0.1-1.4,0.2-2.2,0.2c-1.8,0-3.4-0.3-5.1-1c-1.6-0.7-3.1-1.6-4.3-2.8
		c-1.2-1.2-2.2-2.6-3-4.2c-0.7-1.6-1.1-3.3-1.1-5.2c0-2,0.4-3.9,1.2-5.5c0.8-1.7,1.9-3.1,3.2-4.2s2.7-2.1,4.3-2.7
		c1.6-0.6,3.2-1,4.7-1c0.8,0,1.5,0.1,2.1,0.2c0.7,0.1,1.3,0.3,1.8,0.4c0.6,0.2,1.1,0.3,1.5,0.4s0.8,0.2,1.2,0.2c0.3,0,0.6,0,0.8-0.1
		c0.2-0.1,0.3-0.3,0.4-0.6h0.6v7.3H318.2z"/>
</g>
</svg>
