<svg xmlns="http://www.w3.org/2000/svg" width="128.205" height="23.84" viewBox="0 0 128.205 23.84">
  <g id="Group_151" data-name="Group 151" transform="translate(-7996 -3414.897)">
    <g id="Group_150" data-name="Group 150" transform="translate(8798.223 3724.525)">
      <path id="Path_198" data-name="Path 198" d="M-36.972-257.886A6.836,6.836,0,0,1-42.3-251.22v-2.135a4.776,4.776,0,0,0,3.266-4.531,4.775,4.775,0,0,0-4.775-4.775,4.775,4.775,0,0,0-4.774,4.775,4.776,4.776,0,0,0,3.024,4.443v2.164a6.836,6.836,0,0,1-5.084-6.607,6.834,6.834,0,0,1,6.834-6.834A6.834,6.834,0,0,1-36.972-257.886Z" transform="translate(-662.763 -39.601)" fill="#ec8351"/>
      <path id="Path_199" data-name="Path 199" d="M-17.648-221.231a4.871,4.871,0,0,1-2.036,1.991,4.967,4.967,0,0,0-.527.339,2.593,2.593,0,0,0-.514.521c-.053.072-.1.144-.143.215a2.79,2.79,0,0,0-.287.667q-.025.7-.051,1.4-.03.86-.061,1.719h-.183q-.018-.863-.038-1.728l-.028-1.3a1.87,1.87,0,0,0-.154-.772,1.365,1.365,0,0,0-.163-.269,1.375,1.375,0,0,0-.684-.453c-.194-.071-.884-.59-1.126-.7-.145-.067-.609-.208-1.1-1.263a3.527,3.527,0,0,1,.033-2.588c.792-1.623,2.592-1.525,3.364-1.6a3.484,3.484,0,0,1,3.177,1.267A2.778,2.778,0,0,1-17.648-221.231Z" transform="translate(-685.392 -74.559)" fill="#ec8351"/>
      <path id="Path_200" data-name="Path 200" d="M5.063-134.51l-.113,3.146q-.034-1.574-.07-3.146Z" transform="translate(-711.722 -154.423)" fill="#ec8351"/>
      <g id="Group_141" data-name="Group 141" transform="translate(-802.222 -309.628)">
        <path id="Path_201" data-name="Path 201" d="M-798.4-297.193c0,2.391,1.863,3.323,3.977,3.323,1.384,0,3.5-.4,3.5-2.24,0-1.938-2.693-2.265-5.336-2.97-2.668-.7-5.362-1.737-5.362-5.11,0-3.675,3.474-5.437,6.721-5.437,3.75,0,7.2,1.636,7.2,5.789h-3.826c-.126-2.165-1.661-2.718-3.549-2.718-1.258,0-2.718.529-2.718,2.039,0,1.385.856,1.561,5.361,2.719,1.309.327,5.336,1.158,5.336,5.236,0,3.3-2.593,5.764-7.476,5.764-3.977,0-7.7-1.963-7.652-6.393Z" transform="translate(802.222 309.628)" fill="#fff"/>
        <path id="Path_202" data-name="Path 202" d="M-651.733-251.033h-3.675l-2.316-8.734h-.05l-2.215,8.734h-3.7l-4.128-13.013h3.776l2.391,8.835h.05l2.165-8.835h3.474l2.215,8.81h.05l2.391-8.81h3.675Z" transform="translate(683.701 269.433)" fill="#fff"/>
        <path id="Path_203" data-name="Path 203" d="M-479.786-303.062h-3.574v-2.945h3.574Zm-3.574,2.014h3.574v13.013h-3.574Z" transform="translate(521.042 306.435)" fill="#fff"/>
        <path id="Path_204" data-name="Path 204" d="M-431.186-257.891c.025,1.561,1.334,2.19,2.744,2.19,1.032,0,2.341-.4,2.341-1.661,0-1.082-1.485-1.46-4.053-2.014-2.064-.453-4.128-1.183-4.128-3.474,0-3.323,2.869-4.178,5.663-4.178,2.844,0,5.462.956,5.739,4.153h-3.4c-.1-1.384-1.158-1.762-2.442-1.762-.806,0-1.989.151-1.989,1.208,0,1.284,2.014,1.46,4.053,1.938,2.089.478,4.128,1.233,4.128,3.65,0,3.423-2.97,4.531-5.94,4.531-3.021,0-5.966-1.133-6.117-4.581Z" transform="translate(478.03 272.062)" fill="#fff"/>
        <path id="Path_205" data-name="Path 205" d="M-316.808-257.891c.025,1.561,1.334,2.19,2.744,2.19,1.032,0,2.341-.4,2.341-1.661,0-1.082-1.485-1.46-4.052-2.014-2.064-.453-4.128-1.183-4.128-3.474,0-3.323,2.87-4.178,5.663-4.178,2.844,0,5.462.956,5.739,4.153h-3.4c-.1-1.384-1.158-1.762-2.442-1.762-.805,0-1.988.151-1.988,1.208,0,1.284,2.014,1.46,4.052,1.938,2.089.478,4.128,1.233,4.128,3.65,0,3.423-2.97,4.531-5.94,4.531-3.02,0-5.966-1.133-6.117-4.581Z" transform="translate(377.169 272.062)" fill="#fff"/>
        <path id="Path_206" data-name="Path 206" d="M-197.308-306.007h8.105c4.48,0,6.217,2.844,6.217,5.764s-1.737,5.764-6.217,5.764h-4.153v6.444h-3.952Zm3.952,8.457h3.071c1.838,0,3.474-.4,3.474-2.693s-1.636-2.693-3.474-2.693h-3.071Z" transform="translate(268.794 306.435)" fill="#fff"/>
      </g>
      <g id="Group_142" data-name="Group 142" transform="translate(-697.326 -304.594)">
        <path id="Path_207" data-name="Path 207" d="M97.614-251.033h-3.4v-1.812H94.14a4.642,4.642,0,0,1-3.977,2.165c-3.8,0-4.757-2.14-4.757-5.361v-8H88.98v7.35c0,2.139.629,3.2,2.291,3.2,1.938,0,2.769-1.082,2.769-3.725v-6.821h3.574Z" transform="translate(-85.406 264.398)" fill="#fff"/>
        <path id="Path_208" data-name="Path 208" d="M211.713-266.676h3.4v2.416h.05a4.6,4.6,0,0,1,4.153-2.769,2.661,2.661,0,0,1,.78.126v3.323a6.526,6.526,0,0,0-1.284-.126c-2.618,0-3.524,1.888-3.524,4.178v5.865h-3.574Z" transform="translate(-196.787 267.028)" fill="#fff"/>
      </g>
    </g>
  </g>
</svg>
